<?xml version="1.0" ?>
<svg width="800px" height="800px" viewBox="0 0 24 24" version="1.1" xml:space="preserve" xmlns="http://www.w3.org/2000/svg" xmlns:xlink="http://www.w3.org/1999/xlink">
<g id="grid_system"/>
<g id="_icons">
<g>
<path fill="#147EFB" stroke="#147EFB" d="M16.6,4.2c-0.5-0.3-1.1-0.1-1.4,0.4c-0.3,0.5-0.1,1.1,0.4,1.4c2.1,1.3,3.5,3.6,3.5,6c0,3.9-3.1,7-7,7s-7-3.1-7-7    c0-2.5,1.4-4.8,3.5-6.1C9,5.6,9.2,5,8.9,4.6C8.6,4.1,8,3.9,7.5,4.2C4.7,5.8,3,8.8,3,12c0,5,4,9,9,9s9-4,9-9    C21,8.8,19.3,5.9,16.6,4.2z"/>
<path fill="#147EFB" stroke="#147EFB" d="M12,13c0.6,0,1-0.4,1-1V3c0-0.6-0.4-1-1-1s-1,0.4-1,1v9C11,12.6,11.4,13,12,13z"/>
</g>
</g>
</svg>
